<svg width="506" height="125" viewBox="0 0 506 125" fill="none" xmlns="http://www.w3.org/2000/svg">
<path d="M50.0265 14.2113C51.2218 14.2288 52.4447 14.1871 53.6352 14.298C57.467 14.6552 62.6779 16.0094 65.5109 18.77C66.3546 19.5923 67.1828 20.4742 67.8153 21.4723C69.8774 24.7253 72.056 31.116 72.1077 34.9443C72.6506 34.2047 73.2323 33.494 73.8503 32.8153C78.616 27.4879 81.3575 25.5865 88.2567 23.2614C99.1708 19.5829 110.143 24.4542 111.002 36.8433C111.643 50.0986 99.4965 58.715 90.9762 66.9028C85.3205 72.3379 85.7032 69.1788 89.2899 76.9707C90.0255 78.3241 90.4334 80.105 91.0896 81.4496C97.3573 94.292 95.2768 110.89 78.2275 111.999C77.0539 111.957 75.5628 111.952 74.4253 111.652C63.5701 108.795 58.5312 102.839 58.1053 91.7878C56.6551 93.3778 56.0473 93.4873 54.5358 94.7439C49.5807 98.7766 43.2024 103.469 36.6675 104.21C29.219 105.054 22.1831 99.455 21.8532 91.9304C21.3685 80.8724 34.4552 73.7469 41.7771 67.4913C43.4945 66.0239 45.7754 64.5122 47.2153 62.8274C46.1283 60.6945 44.5747 58.7877 43.3742 56.8024C39.2649 49.9707 35.1701 42.6464 34.137 34.6324C33.4554 29.3445 34.2791 25.1881 37.7388 21.0942C41.043 17.1846 44.953 14.8907 50.0265 14.2113ZM82.9215 63.8026L83.0899 63.9236C84.0061 63.3193 85.8996 61.2941 86.8304 60.439C91.6161 56.043 97.6118 50.2373 100.426 44.3857C101.145 42.8911 101.648 41.2311 101.977 39.6088C102.562 36.7195 102.517 33.0708 100.776 30.5402C99.7334 29.0234 97.7894 28.0902 96.0072 27.7854C94.9735 27.6085 93.9225 27.6504 92.8832 27.7577C87.4341 28.3973 81.0923 32.0804 76.9857 35.6415C76.189 36.3323 75.4654 37.1335 74.725 37.8845C74.26 38.3562 73.5799 38.7563 73.1837 39.2632C73.0069 39.4893 72.9422 39.6788 72.9881 39.9666C73.1795 41.165 74.0593 42.3917 74.4733 43.5527C75.2508 45.7325 75.8719 47.9861 76.693 50.1464C77.641 52.6408 79.0429 55.558 80.1323 58.0642C80.9794 60.0129 82.2591 61.7645 82.9215 63.8026ZM51.1486 60.526C52.4705 58.8881 53.8475 57.2545 55.3095 55.7394C60.0921 50.3865 65.1016 44.4513 69.0671 38.4963C67.6618 32.3998 65.2366 25.1212 59.6227 21.6117C57.4446 20.2501 55.7916 20.2385 53.3165 20.314C50.6563 20.5282 48.7031 21.8816 46.9925 23.8762C44.1888 27.1458 43.5562 32.0181 43.8922 36.1451C44.1148 38.8788 44.99 41.5118 45.7114 44.1455C46.0893 45.5253 46.3559 46.9312 46.7719 48.2999C47.5008 50.6989 48.4131 52.9917 49.2425 55.3517C49.8504 57.0819 50.3899 58.8547 51.1486 60.526ZM31.8225 93.7024C35.7952 96.6118 39.9823 95.2676 44.1808 93.6762C47.6129 92.3751 50.4611 89.6853 53.5816 88.0285C54.411 86.8767 56.5314 86.3366 56.9532 85.4994C56.4374 84.6108 55.7709 81.3001 55.4167 80.0984C53.8585 74.8132 52.6512 71.441 49.7398 66.6981L49.6633 66.7944C48.9708 67.6506 47.7875 68.4641 46.9733 69.2856C41.5887 74.7189 28.1165 84.9006 31.8225 93.7024ZM70.288 43.0532C66.917 47.7283 63.5856 52.6074 59.8658 57.0087C57.7732 59.4846 55.3445 61.642 53.203 64.0558C53.8213 66.4928 55.2418 68.7146 56.2828 70.9982C57.5897 73.865 58.6921 76.8189 60.1676 79.6139C60.348 79.9555 60.5618 80.3052 60.69 80.6699C60.8257 81.0557 60.8424 81.8884 61.1313 82.1196C61.4546 81.9524 61.629 81.7178 61.847 81.4387C66.4272 76.8456 71.554 72.6732 76.657 68.6742C77.5327 67.9879 78.5693 67.5433 79.4222 66.8593C78.1663 64.6113 76.9333 62.2794 76.0029 59.8757C75.2825 58.0147 74.6529 56.1097 73.9637 54.2355C73.2669 52.3405 72.4913 50.4482 71.9204 48.512C71.6604 47.6302 70.6677 43.5463 70.288 43.0532ZM81.6472 74.156C76.2812 77.6871 71.2824 82.0515 66.1109 85.881C64.763 86.879 63.5506 88.0005 62.1728 88.999C64.4634 93.8015 65.8588 97.1469 70.4997 100.417C72.7205 101.927 76.1625 103.675 78.9211 103.108C88.1749 101.205 85.9483 86.8566 84.2552 80.2691C83.6889 78.0659 82.6867 75.7279 82.2686 73.5598L81.6472 74.156Z" fill="#F02430"/>
<path d="M81.9866 71.8065C82.8779 72.5308 83.8316 71.9075 84.9347 71.7241C85.4942 73.7914 86.287 75.7087 87.0058 77.7165C87.22 78.3149 87.7657 79.699 87.8744 80.2692L87.6577 80.3977L87.6759 80.498C87.9799 82.1204 90.7898 90.1962 90.3111 91.0092C89.4411 90.8794 89.8724 90.014 89.5985 89.2468C88.7951 86.9966 88.1343 85.0223 87.0805 82.8488C86.7647 83.9698 87.164 84.5232 87.0912 85.2184L86.9458 85.1918L86.8862 86.241C86.6087 85.1494 86.6784 82.9025 86.3753 81.7021C85.7786 79.3386 84.5307 76.9816 83.6983 74.6666C83.5238 74.1813 83.2368 72.9398 83.0378 72.7257C82.734 72.7847 82.4474 73.1722 82.2126 73.4224L82.2686 73.5598L81.6471 74.156C81.4765 73.7814 81.5325 73.7244 81.224 73.5858C80.4846 74.0197 76.7692 76.6201 76.3076 76.559L76.4002 76.5051C76.9128 76.2008 79.1774 74.2141 79.4227 74.2164C79.8073 73.8842 80.1977 73.8472 80.3901 73.4359L80.3103 73.4103C80.0496 73.5081 79.1313 73.9845 79.0401 73.9968C79.2457 73.6284 81.117 72.2146 81.5249 71.936C81.8268 71.9509 81.7092 71.9709 81.9866 71.8065Z" fill="#F4444B"/>
<path d="M81.9866 71.8065C82.8779 72.5308 83.8316 71.9075 84.9347 71.7241C85.4942 73.7914 86.287 75.7087 87.0058 77.7165C87.22 78.3149 87.7657 79.699 87.8744 80.2692L87.6577 80.3977C87.1693 78.8854 85.283 73.3705 84.5115 72.0677C84.1715 72.0067 84.2762 72.0269 83.9002 72.1967C83.363 72.8395 83.8096 73.9358 84.1108 74.6177C84.6723 75.8881 85.1823 77.1377 85.6746 78.4377C86.0384 79.3743 86.3644 80.3249 86.6518 81.2875C86.7026 81.4595 87.0483 82.7787 87.0805 82.8488C86.7647 83.9698 87.164 84.5232 87.0912 85.2184L86.9458 85.1918L86.8862 86.241C86.6087 85.1494 86.6784 82.9025 86.3753 81.7021C85.7786 79.3386 84.5307 76.9816 83.6983 74.6666C83.5238 74.1813 83.2368 72.9398 83.0378 72.7257C82.734 72.7847 82.4474 73.1722 82.2126 73.4224L82.2686 73.5598L81.6471 74.156C81.4765 73.7814 81.5325 73.7244 81.224 73.5858C80.4846 74.0197 76.7692 76.6201 76.3076 76.559L76.4002 76.5051C76.9128 76.2008 79.1774 74.2141 79.4227 74.2164C79.8073 73.8842 80.1977 73.8472 80.3901 73.4359L80.3103 73.4103C80.0496 73.5081 79.1313 73.9845 79.0401 73.9968C79.2457 73.6284 81.117 72.2146 81.5249 71.936C81.8268 71.9509 81.7092 71.9709 81.9866 71.8065Z" fill="#C40D1C"/>
<path d="M81.5249 71.936C81.7452 72.2468 81.8673 72.3613 81.837 72.7488C81.4899 73.4037 80.1304 74.0819 79.4227 74.2164C79.8074 73.8842 80.1977 73.8472 80.3901 73.4359L80.3103 73.4103C80.0497 73.5081 79.1313 73.9845 79.0402 73.9968C79.2458 73.6284 81.117 72.2146 81.5249 71.936Z" fill="#AE0413"/>
<path d="M82.7372 69.1128L82.9987 69.2385C83.1981 70.3901 82.518 71.0082 81.9867 71.8065C81.7092 71.9709 81.8268 71.9509 81.5249 71.936C81.117 72.2146 79.2458 73.6284 79.0402 73.9968C78.4927 74.2178 78.1245 74.625 77.6159 74.8937C75.7861 75.8605 74.5359 77.2054 72.5785 77.8955C71.5802 78.6461 71.0354 79.1088 69.8251 79.5054C71.6323 78.17 72.329 76.9655 74.0304 75.8573C74.3565 75.4821 77.4763 72.8647 78.0407 72.583C78.8786 72.1742 81.2807 70.6301 81.9706 69.989C82.361 69.6798 82.4516 69.5238 82.7372 69.1128Z" fill="#F4222F"/>
<path d="M74.0304 75.8573C74.1563 76.4885 73.0506 77.3994 72.5785 77.8955C71.5802 78.6461 71.0354 79.1088 69.8251 79.5054C71.6323 78.17 72.329 76.9655 74.0304 75.8573Z" fill="#F4444B"/>
<path d="M60.2297 84.4712L60.5654 84.2902C60.9524 84.6368 61.4635 88.642 60.8098 89.0996C60.2949 89.4598 59.0733 90.6333 58.491 90.7932L58.2685 90.7498L58.6469 90.6064C58.6867 90.3441 58.6359 90.2803 58.5348 90.0227C58.846 89.3312 59.3635 89.4591 59.3564 88.9767C59.1228 88.7181 58.9832 88.5177 58.6646 88.3801C58.3026 88.5063 58.0821 88.7661 57.7972 89.0336L57.6345 88.9475L57.7258 89.0931L57.5542 89.0459C58.4357 87.6176 59.2272 87.2921 59.9836 86.3625C59.6829 86.4347 59.5182 86.5295 59.2442 86.6631C59.2046 86.7635 59.2219 86.7634 59.1496 86.8197C57.8161 87.8599 56.6641 89.9291 55.068 90.4711C55.2296 90.1387 55.4601 90.1067 55.7568 89.8781L55.6229 89.6581L54.9865 89.9452C56.2407 88.7482 58.5494 84.6623 60.2297 84.4712Z" fill="#AE0413"/>
<path d="M59.2442 86.6631C59.2046 86.7635 59.2219 86.7634 59.1496 86.8197C57.8161 87.8599 56.6641 89.9291 55.068 90.4711C55.2296 90.1387 55.4601 90.1067 55.7568 89.8781L55.6229 89.6581L54.9865 89.9452C56.2407 88.7482 58.5494 84.6624 60.2297 84.4712L60.1775 84.5295C58.5345 86.3369 57.5384 86.4791 56.688 88.9637C57.2929 88.3394 58.5194 86.851 59.2442 86.6631Z" fill="#C40D1C"/>
<path d="M26.6738 97.5946C26.2454 97.4706 26.4215 97.471 26.0031 97.5767C24.133 97.0067 23.6168 89.3744 24.477 88.5332L24.6373 88.5862C24.68 88.9885 24.6596 89.1067 24.6089 89.4923C25.3379 89.7577 24.9484 91.1488 25.2601 92.0094C26.8548 96.4124 27.5273 99.3472 32.2645 101.119C32.8145 101.323 33.3664 101.521 33.9202 101.714L33.9286 101.873C33.0198 102.209 31.3253 101.262 30.2863 100.956C28.9 100.547 27.6675 98.3522 26.6738 97.5946Z" fill="#F4444B"/>
<path d="M26.6738 97.5946C26.2454 97.4706 26.4215 97.471 26.0031 97.5767C24.133 97.0067 23.6168 89.3744 24.477 88.5332L24.6373 88.5862C24.68 88.9885 24.6596 89.1067 24.6089 89.4923C24.4352 91.9381 24.7843 95.814 26.6738 97.5946Z" fill="#C40D1C"/>
<path d="M82.4482 68.4663C82.6191 67.8892 82.3766 67.3884 82.3376 66.7163C82.7455 66.3138 82.9296 66.7169 83.6899 66.1984L83.7847 66.2767C83.3917 66.8311 82.903 66.4237 82.804 67.3774L82.9671 67.6066L83.2073 67.6011C83.6887 67.0597 83.2454 67.0771 83.6444 66.7703L83.8185 66.8418L83.6222 67.1479C83.8463 67.2605 83.9866 67.2341 84.2456 67.234C84.3414 67.4251 84.5351 67.7838 84.591 67.9689C84.9392 69.1218 85.8503 68.5865 86.5514 69.2029C86.7105 69.6261 86.716 69.6821 86.6874 70.1342C86.3708 70.7017 85.4757 71.3293 84.9347 71.7241C83.8316 71.9075 82.8779 72.5308 81.9866 71.8065C82.518 71.0082 83.1981 70.3901 82.9987 69.2385L82.7372 69.1128L82.4482 68.4663Z" fill="#AE0413"/>
<path d="M31.5301 82.156C32.0536 81.6144 32.4566 81.1631 33.0749 80.7238C31.8997 83.3467 29.0209 86.4447 28.8653 89.0364C29.1803 88.7573 29.0814 88.7614 29.4341 88.7056C29.8851 89.114 29.8381 91.8473 30.2761 92.6222C30.6092 93.2117 31.2123 94.2283 31.3724 94.8469L31.3103 95.0526C30.9237 94.9727 30.4256 94.4092 30.034 94.1093L29.9503 93.9989L29.5382 93.6102L29.0549 94.012C28.6721 93.3174 28.5206 92.8433 28.3256 92.0894C27.645 90.4335 28.2247 88.7457 28.775 87.1754C29.4065 86.1666 29.8725 85.2754 30.2885 84.1639C30.7257 83.5093 31.1398 82.8395 31.5301 82.156Z" fill="#C40D1C"/>
<path d="M28.8654 89.0364C29.1804 88.7573 29.0815 88.7614 29.4342 88.7056C29.8851 89.114 29.8381 91.8473 30.2761 92.6222C30.6092 93.2117 31.2123 94.2283 31.3724 94.8469L31.3103 95.0526C30.9237 94.9727 30.4257 94.4092 30.0341 94.1092L29.9504 93.9989L29.5382 93.6102L29.1501 92.5505C28.8378 91.3038 28.8742 90.313 28.8654 89.0364Z" fill="#F4444B"/>
<path d="M28.3256 92.0894C28.5088 92.2512 28.5301 92.3324 28.7214 92.3449C28.7792 92.0825 28.7234 91.9703 28.6546 91.7015C28.7776 91.843 28.7849 91.8352 28.8762 91.9984L28.8548 92.1326C28.979 92.2562 29.062 92.4006 29.1501 92.5505L29.5381 93.6102L29.0549 94.012C28.6721 93.3174 28.5206 92.8433 28.3256 92.0894Z" fill="#AE0413"/>
<path d="M82.4483 68.4663L82.7372 69.1128C82.4516 69.5238 82.361 69.6798 81.9706 69.989C81.2807 70.6301 78.8786 72.1742 78.0407 72.583L77.7063 72.2731C76.2174 72.9044 75.0682 74.8226 72.7375 75.5391C75.3544 72.814 77.7 69.9666 81.4236 68.9028C81.706 68.8221 82.0381 68.6825 82.3205 68.5801L82.4483 68.4663Z" fill="#F4444B"/>
<path d="M81.4823 69.6116C81.7312 69.7385 81.8364 69.7598 81.9706 69.989C81.2806 70.6301 78.8786 72.1742 78.0407 72.583L77.7062 72.2731C78.8399 71.5433 80.4473 70.4403 81.4823 69.6116Z" fill="#AE0413"/>
<path d="M82.4482 68.4663L82.7372 69.1128C82.4515 69.5238 82.361 69.6798 81.9706 69.989C81.8363 69.7598 81.7312 69.7385 81.4823 69.6116C81.895 69.1954 81.9984 69.0691 82.3205 68.5801L82.4482 68.4663Z" fill="#C40D1C"/>
<path d="M42.733 42.0918C42.5731 41.9082 42.4208 41.3981 42.1942 41.0831C41.0384 39.4756 41.9581 38.4913 41.8474 37.201C41.6092 34.4236 41.3412 31.4595 41.1495 28.6686C41.1323 28.4174 41.5028 28.1741 41.6853 28.0607L41.7774 28.0043C41.4563 26.6439 43.5403 22.825 44.7078 22.1696L44.732 22.3276C43.2047 24.3345 42.012 26.5488 41.8677 29.1316C41.8407 29.6168 42.0339 30.4359 41.8698 30.7843L41.5251 30.5142L41.4176 30.7216C41.4634 30.8439 41.5876 31.0404 41.6575 31.1615C42.1934 32.2622 42.2734 37.4712 42.5252 39.0327C43.0981 42.5859 44.1857 45.8875 45.2104 49.3082L44.884 49.3378C44.8152 48.859 44.1687 46.9923 43.9905 46.4608C43.4857 44.9551 43.1031 43.644 42.733 42.0918Z" fill="#C40D1C"/>
<path d="M41.6575 31.1615C42.1934 32.2622 42.2734 37.4712 42.5251 39.0327C43.0981 42.5859 44.1857 45.8875 45.2103 49.3082L44.8839 49.3378C44.8152 48.859 44.1687 46.9923 43.9905 46.4608C43.4857 44.9551 43.1031 43.644 42.7329 42.0918C42.1898 39.3221 41.6349 33.9575 41.6575 31.1615Z" fill="#6E030D"/>
<path d="M94.4833 60.3699C94.6673 60.5166 94.6753 60.5021 94.9009 60.5314C95.4274 60.3766 95.9766 59.8406 96.4134 59.4739C95.8613 61.1957 87.9227 67.3289 85.9014 67.7047L85.8582 67.5717C85.9808 67.3995 86.1289 67.1918 86.3024 66.9484C86.2096 66.5979 86.3713 66.2865 86.7111 65.9841C87.6526 65.1465 89.2297 64.6298 90.2273 63.9012C91.3415 63.0875 93.336 61.0065 94.4833 60.3699Z" fill="#F4444B"/>
<path d="M84.3405 28.616L84.2891 28.4937C85.0112 28.016 85.7325 28.1037 86.0731 27.3648C86.9639 26.7204 91.042 25.4215 92.2392 24.9668C92.5444 24.8508 92.7555 25.096 93.0282 25.2914C93.5381 25.3493 93.6527 25.2096 94.1755 24.9982L94.3692 25.0955C94.272 25.312 94.2796 25.2064 94.3102 25.416C95.3034 26.1188 97.0644 25.6349 98.2829 26.0012C98.9669 26.2068 100.355 26.9491 100.967 26.8124C101.142 26.9032 101.513 27.2774 101.675 27.4307C99.4559 26.8324 97.9442 25.9253 95.6156 25.9152L95.7688 26.0477C95.217 26.1808 93.5232 26.4661 92.984 26.4592C91.7594 26.3207 87.7481 27.7407 86.4433 28.1283C85.921 28.2835 84.899 28.7399 84.3793 28.7697L84.3405 28.616Z" fill="#F4444B"/>
<path d="M93.467 26.1206L92.984 26.4592C91.7594 26.3207 87.7481 27.7407 86.4433 28.1283C85.921 28.2834 84.899 28.7399 84.3792 28.7697L84.3405 28.616C84.6211 28.5459 86.4759 27.7819 86.9407 27.6199C89.3642 26.7753 90.9501 26.442 93.467 26.1206Z" fill="#AE0413"/>
<path d="M93.467 26.1206C94.077 25.772 94.9179 25.881 95.6156 25.9152L95.7688 26.0477C95.217 26.1808 93.5232 26.4661 92.984 26.4592L93.467 26.1206Z" fill="#D82E35"/>
<path d="M58.2366 84.1604C58.266 83.9702 58.3609 83.3192 58.3059 83.1659C57.2086 80.1106 55.4887 77.2793 54.6755 74.111C54.5885 73.7721 54.2807 73.2319 54.3529 72.9188C54.6234 73.1433 56.288 75.958 56.4587 76.3718C57.5709 79.0693 58.5115 81.6523 59.8484 84.2598L59.7548 84.2744C58.4552 84.4899 57.6666 86.421 55.9992 86.4863C55.7122 86.4976 54.2122 88.1172 53.5816 88.0284C54.411 86.8767 56.5314 86.3365 56.9532 85.4994C56.9932 85.5713 57.1232 85.6578 57.1963 85.7152C57.6281 85.5166 58.0064 84.6095 58.2366 84.1604Z" fill="#C40D1C"/>
<path d="M58.2366 84.1604C58.5786 84.0016 58.6666 83.9393 59.0522 84.0031L59.168 84.1775L59.0939 84.3496C58.6973 84.6415 58.6772 84.7629 58.2718 84.7748C58.1502 84.5033 58.1771 84.4677 58.2366 84.1604Z" fill="#C40D1C"/>
<path d="M49.3629 62.6207C49.1387 62.4746 49.2307 62.5673 49.0956 62.3158C49.319 61.7427 50.3004 60.8497 50.9353 60.842L50.9719 60.9374L50.8613 60.858L50.9677 61.0371C50.9429 61.1746 50.8127 61.3258 50.7249 61.4536L50.4726 62.3879C51.124 62.9222 52.0269 66.021 52.2105 66.9152L52.1627 67.0797C51.8526 66.0253 51.2894 64.0519 50.807 63.1572L50.6613 63.1049C50.4231 63.609 48.4965 65.0563 47.978 65.4745C45.9163 67.1376 43.8737 68.6503 42.3363 70.8502C42.1628 71.0986 41.7058 71.2938 41.4144 71.4003C41.2533 71.2717 41.2589 71.2821 41.1541 71.1058L38.8236 72.7378L38.3506 72.5137C39.086 71.6238 40.2078 71.2546 41.106 70.5376C43.3595 68.7386 46.0024 67.2026 47.7 64.808C48.3931 63.8303 48.4355 63.6398 49.3108 62.7772L49.3629 62.6207Z" fill="#F4444B"/>
<path d="M49.3629 62.6207C49.1387 62.4746 49.2307 62.5673 49.0956 62.3158C49.319 61.7427 50.3004 60.8497 50.9353 60.842L50.9719 60.9374L50.8612 60.858L50.9677 61.0371C50.9429 61.1746 50.8127 61.3258 50.7249 61.4536L50.4726 62.3879C50.2678 62.7134 50.1998 62.8754 49.8473 63.0514C49.49 63.0024 49.6273 63.052 49.3108 62.7772L49.3629 62.6207Z" fill="#F4444B"/>
<path d="M50.7249 61.4536L50.4726 62.3879C50.2678 62.7134 50.1998 62.8754 49.8474 63.0514C49.49 63.0024 49.6273 63.052 49.3109 62.7772L49.3629 62.6207C49.731 62.2526 50.3121 61.7972 50.7249 61.4536Z" fill="#C40D1C"/>
<path d="M33.8489 97.3087C35.0952 97.4489 38.2567 97.5645 39.0798 98.2396L38.459 98.236C38.6456 98.5414 38.7122 98.7266 39.0323 98.875C38.4608 98.9548 37.8688 99.0345 37.2897 98.9955C35.6355 99.178 35.1324 99.0696 33.4757 98.7297C32.8337 98.533 31.6735 98.2595 31.2825 97.7342C31.6439 97.2886 32.4389 98.1022 32.9303 97.972L32.8168 97.6761L33.045 97.4839C33.3417 97.5239 33.5459 97.5577 33.8372 97.6265L33.8489 97.3087Z" fill="#C40D1C"/>
<path d="M33.8489 97.3087C35.0952 97.4489 38.2567 97.5645 39.0798 98.2396L38.459 98.236C38.6456 98.5414 38.7122 98.7266 39.0323 98.875C38.4608 98.9548 37.8688 99.0345 37.2897 98.9955C36.8292 98.6597 36.9632 98.83 36.7821 98.298C35.6402 98.0986 34.9446 97.9535 33.8372 97.6265L33.8489 97.3087Z" fill="#F4444B"/>
<path d="M36.782 98.298C37.2909 98.2825 37.9656 98.282 38.459 98.236C38.6456 98.5414 38.7122 98.7266 39.0323 98.875C38.4608 98.9548 37.8688 99.0345 37.2897 98.9955C36.8292 98.6597 36.9632 98.83 36.782 98.298Z" fill="#B9283A"/>
<path d="M69.1128 105.767C71.0309 106.596 72.8118 107.859 74.899 107.977C74.7353 108.241 74.4974 108.586 74.399 108.87C74.0083 109.035 72.3914 108.638 71.9694 108.478C70.9347 108.237 68.9271 107.231 68.0962 106.582C68.5321 106.521 68.5459 106.61 69.0167 106.795C69.101 106.522 69.0093 106.385 68.881 106.136L68.8497 106.077L69.1128 105.767Z" fill="#C40D1C"/>
<path d="M68.0962 106.582C68.5321 106.521 68.5459 106.61 69.0167 106.795L69.0884 106.828C69.9292 107.208 71.6327 107.612 72.0436 108.253L71.9694 108.478C70.9347 108.237 68.9271 107.231 68.0962 106.582Z" fill="#6E030D"/>
<path d="M86.8863 86.241L86.9459 85.1918L87.0913 85.2184C87.6891 89.3429 88.533 94.3582 86.816 98.3396L86.5945 98.0776C87.6813 95.3489 86.9712 89.0783 86.8863 86.241Z" fill="#AE0413"/>
<path d="M73.3664 104.992L73.4167 104.763C74.4568 105.111 75.9453 105.653 76.9891 105.822C78.4257 106.357 81.5237 105.827 82.6835 104.771L83.0369 104.829L83.146 104.981C83.0146 105.341 82.6211 105.569 82.2947 105.799C80.7253 106.48 78.1485 106.983 76.504 106.437C75.7195 106.177 73.9334 105.551 73.3664 104.992Z" fill="#F4444B"/>
<path d="M47.5884 93.5369C47.916 93.8557 47.8662 93.7169 47.8882 94.0703C45.7733 94.9491 45.0521 95.9626 43.773 96.5409C42.8359 96.7494 41.4685 96.8804 40.4941 96.9292C40.2247 96.9427 40.0746 96.6904 39.8902 96.484C40.6554 96.3061 41.5066 96.2633 42.2853 96.0215C44.0471 95.4742 45.9327 94.3949 47.5884 93.5369Z" fill="#F4444B"/>
<path d="M49.2591 16.1475C49.9149 16.0793 51.1576 16.1749 51.7944 16.3042C50.9886 16.4822 50.1559 16.5101 49.3428 16.6495C47.5886 16.9504 46.1627 17.9405 44.7086 18.8957C44.2209 19.1938 43.6732 19.6636 43.0865 19.6837L42.9931 19.4961C43.0587 19.3596 43.1343 19.2296 43.2304 19.1118C44.4555 17.6105 47.3551 16.3983 49.2591 16.1475Z" fill="#F4444B"/>
<path d="M43.773 96.5409C44.5546 96.6678 44.8013 96.6473 45.5498 96.3838C45.2188 96.6501 44.557 97.1481 44.1868 97.3384C42.9012 97.5415 40.77 98.7286 39.0323 98.875C38.7122 98.7266 38.6456 98.5414 38.459 98.236L39.0798 98.2396C39.8307 98.1708 42.7141 97.4724 43.1864 96.9058C42.7261 96.5656 38.7987 97.5803 37.9409 97.0297C38.2856 96.7603 39.4358 96.512 39.8902 96.484C40.0746 96.6904 40.2247 96.9428 40.4941 96.9292C41.4685 96.8804 42.836 96.7494 43.773 96.5409Z" fill="#D82E35"/>
<path d="M41.6682 45.2803C41.6697 45.3596 41.662 45.3209 41.6987 45.4054C42.3926 47.0033 42.8379 48.9907 43.4564 50.6768C44.3568 53.1309 45.7541 55.4343 46.2397 58.0116C46.2015 57.9852 46.121 57.9346 46.0853 57.895C45.7183 57.4875 45.4053 56.2081 45.1685 55.6678C44.4209 53.9617 43.3478 52.361 42.7426 50.5994C42.432 49.6954 42.3165 48.6953 42.0988 47.7609C41.9132 46.9645 41.6243 46.1014 41.6682 45.2803Z" fill="#C40D1C"/>
<path d="M60.7687 95.1094C61.6726 97.6576 63.0838 98.7378 64.204 101.148C64.3348 101.43 64.6993 102.065 64.7647 102.298L64.4212 102.47C63.854 101.601 63.1142 100.773 62.5488 99.9485C61.7695 98.8125 60.8765 96.4989 60.5146 95.1658L60.7687 95.1094Z" fill="#C40D1C"/>
<path d="M73.3664 104.992C73.1017 104.949 72.8512 105.202 72.5605 105.125C71.7049 104.9 71.5759 104.393 70.6333 104.625C69.5296 104.259 64.6788 100.328 64.5261 99.1283L64.6878 99.0028C65.0848 99.1719 65.4812 99.9807 65.8058 100.35C67.96 102.803 70.1852 104.064 73.4167 104.763L73.3664 104.992Z" fill="#C40D1C"/>
<path d="M88.5395 103.986C89.0448 102.831 90.0531 99.6121 90.3318 99.1122L90.7734 98.9686C91.058 98.8745 91.1262 98.8171 91.3662 98.6359C91.5453 99.1116 90.5326 101.411 90.2578 101.98C89.7354 103.063 89.8658 103.165 88.9624 104.005L88.5395 103.986Z" fill="#F4444B"/>
<path d="M88.5395 103.986L88.9624 104.005C87.8946 105.151 87.251 108.102 85.024 108.657C84.8465 108.57 84.4764 108.447 84.2761 108.373C83.9265 108.648 83.8745 108.68 83.4559 108.83C83.3852 108.52 83.3558 108.475 83.4284 108.176C83.8734 107.568 84.3036 107.439 85.0332 107.28C85.1018 107.508 85.132 107.59 85.2288 107.807L85.4683 107.841C86.6703 107.5 87.4999 104.893 88.5395 103.986Z" fill="#F4444B"/>
<path d="M62.303 101.742C63.0619 102.397 63.5741 103.559 64.1973 104.363C66.1027 106.819 68.8533 108.025 71.6151 109.237C71.5854 109.248 71.5564 109.261 71.5259 109.27C71.0045 109.426 69.3171 108.645 68.8101 108.394C65.9646 106.985 63.3384 104.806 62.303 101.742Z" fill="#AE0413"/>
<path d="M37.5433 23.1091L37.685 23.4679C36.5641 25.1235 36.0566 26.9144 35.5545 28.8353C35.3702 29.5406 35.187 32.651 34.9637 32.8711C34.939 32.7981 34.9267 32.7721 34.9182 32.686C34.5817 29.2803 35.5163 25.8704 37.5433 23.1091Z" fill="#6E030D"/>
<path d="M88.1725 24.9449C88.3527 24.9763 88.426 25.0989 88.5534 25.2245L88.5199 25.2255C87.693 25.8257 86.446 25.9436 85.4919 26.3508C83.8526 27.0507 82.3169 27.9363 80.8346 28.9192C80.5941 29.0736 80.4849 29.2112 80.1889 29.1582C80.1969 29.1168 80.2041 29.0612 80.2224 29.0206C80.799 27.7509 86.8701 25.3719 88.1725 24.9449Z" fill="#AE0413"/>
<path d="M103.626 49.2352C103.791 49.3782 104.1 49.5785 104.071 49.8094C103.926 50.9308 102.39 52.8822 101.622 53.6443L101.095 53.5886C101.364 52.8995 102.701 51.0826 102.982 50.2052C103.276 49.8397 103.392 49.6425 103.626 49.2352Z" fill="#F4444B"/>
<path d="M107.744 29.9413C108.043 30.1046 108.611 31.4724 108.843 31.854L108.832 31.7347C109.324 32.6471 109.74 33.5792 109.914 34.6093C109.971 34.9524 109.891 35.0826 109.7 35.3549L109.555 35.275L109.337 34.0911C109.34 35.0876 109.443 36.0582 109.466 37.0483C109.509 37.7764 109.276 38.3955 109.308 39.1354C109.098 38.2275 109.236 37.126 109.205 36.1868C109.135 34.0137 108.545 31.9479 107.744 29.9413Z" fill="#AE0413"/>
<path d="M102.982 50.2052C102.931 49.6765 103.589 48.5081 103.864 47.9716C105.21 45.3496 106.139 42.7883 106.444 39.8602C107.273 41.6565 104.535 47.6429 103.626 49.2352C103.392 49.6425 103.276 49.8397 102.982 50.2052Z" fill="#AE0413"/>
<path d="M45.2104 49.3082C45.7045 50.8495 45.8548 52.3971 46.4395 53.9637C46.7157 54.7039 48.4159 58.1829 48.4176 58.5439C48.1548 58.4233 46.5301 55.3412 46.3886 54.9204C45.9173 53.519 45.0032 50.743 44.884 49.3378L45.2104 49.3082Z" fill="#C40D1C"/>
<path d="M29.5381 93.6102L29.9503 93.9989L30.034 94.1093C30.3002 94.7631 30.3677 95.1926 30.8784 95.6566L30.944 95.7169C31.4502 96.1755 33.1818 97.2272 33.8489 97.3087L33.8371 97.6265C33.5459 97.5577 33.3416 97.5239 33.045 97.4839L32.8168 97.6762C32.0663 97.296 30.2893 95.7623 29.7161 95.0966C29.4415 94.7433 29.1595 94.4436 29.0549 94.012L29.5381 93.6102Z" fill="#D82E35"/>
<path d="M29.5381 93.6102L29.9503 93.9989C29.9268 94.4056 29.9509 94.7701 29.7161 95.0966C29.4415 94.7433 29.1595 94.4436 29.0549 94.012L29.5381 93.6102Z" fill="#C40D1C"/>
<path d="M96.3067 54.2615C96.3887 54.3259 96.5008 54.3378 96.6014 54.3627L96.6213 54.4825C95.4333 56.0609 92.6198 58.4001 90.991 59.6293L90.9375 59.6447L90.8408 59.5895C91.2171 58.8568 94.5574 55.837 95.32 55.1296C95.643 54.83 96.0322 54.5973 96.3067 54.2615Z" fill="#F4444B"/>
<path d="M64.4212 102.47L64.7647 102.298C65.5793 103.409 67.9143 105.572 69.1128 105.767L68.8497 106.077L68.881 106.136C69.0093 106.385 69.101 106.522 69.0167 106.795C68.5459 106.61 68.5321 106.521 68.0962 106.582C67.8428 106.43 67.7389 106.343 67.5099 106.153C67.7474 105.976 67.8095 105.955 67.943 105.701C66.6738 104.939 65.1894 103.746 64.4212 102.47Z" fill="#AE0413"/>
<path d="M34.1048 75.9685C35.0678 74.6895 35.5716 74.209 36.9943 73.4227C37.4644 73.1628 37.9654 72.8885 38.3506 72.5137L38.8236 72.7378C37.7321 73.7322 35.4707 75.3636 34.1048 75.9685Z" fill="#F4444B"/>
<path d="M64.0546 82.5787L64.1253 82.5918C64.2755 82.7791 64.2819 82.7808 64.2808 83.0195C63.6376 83.7334 62.7885 84.5806 61.8972 84.9609L61.6038 84.7553C61.5389 84.574 61.477 84.5055 61.5562 84.3197C61.9176 83.4714 63.2359 82.8846 64.0546 82.5787Z" fill="#C40D1C"/>
<path d="M47.5884 93.5369C48.2338 93.02 51.3685 91.2474 52.081 91.0011L52.2972 91.0457C52.2359 91.2024 48.5576 93.7815 48.0163 94.0165C47.9739 94.0349 47.9312 94.0529 47.8882 94.0703C47.8662 93.7169 47.916 93.8557 47.5884 93.5369Z" fill="#F4444B"/>
<path d="M94.4833 60.3699C95.8669 59.2501 96.9357 58.0421 98.2319 56.9534L98.6776 57.1826C97.8993 57.9229 97.1442 58.687 96.4134 59.4739C95.9766 59.8406 95.4274 60.3766 94.9009 60.5314C94.6753 60.5021 94.6673 60.5166 94.4833 60.3699Z" fill="#EF6D74"/>
<path d="M101.095 53.5886L101.622 53.6443C100.73 55.3254 100.175 56.0085 98.6776 57.1826L98.2319 56.9534C99.3968 55.8633 100.157 54.8877 101.095 53.5886Z" fill="#EF6D74"/>
<path d="M51.2619 17.248C51.3478 17.2498 51.425 17.2555 51.507 17.2836C52.2427 17.5355 52.9754 17.4805 53.745 17.5452C52.9299 17.6172 51.7038 18.3516 51.0094 18.1797C50.8633 18.0663 50.696 17.9142 50.5166 17.8612C50.2727 17.7892 50.0815 17.9448 49.8682 18.0516C49.0718 18.2767 48.3568 18.7899 47.5535 19.0205C48.5658 18.2229 50.0681 17.7383 51.2619 17.248Z" fill="#F4444B"/>
<path d="M92.1435 90.9008C92.152 90.9207 92.1618 90.9402 92.169 90.9607C92.5025 91.8989 92.8573 95.9185 92.8683 97.0133C92.8705 97.2249 92.8067 97.4175 92.711 97.604C92.6573 97.5038 92.6157 97.4042 92.5871 97.2937C92.3563 96.403 91.7764 92.0184 91.9539 91.2493C91.9767 91.1504 92.0921 90.9954 92.1435 90.9008Z" fill="#AE0413"/>
<path d="M84.9893 104.202C85.4195 103.828 85.3664 103.754 85.8449 103.682C86.001 104.406 83.9574 105.873 83.2675 106.159L83.1918 106.056C83.3492 105.504 84.503 104.62 84.9893 104.202Z" fill="#F4444B"/>
<path d="M37.1849 34.2618C37.1905 34.2767 37.1973 34.2914 37.2019 34.3066C37.4078 34.9734 37.8419 39.296 37.5809 39.8239C37.3229 39.5031 37.3058 38.8552 37.2439 38.4457C37.0537 37.4419 36.6929 36.2113 36.7977 35.1888C36.9676 35.6815 36.9258 36.2325 37.093 36.6868C37.1285 36.7831 37.1258 36.8181 37.1078 36.9182C37.2629 36.0177 37.1401 35.167 37.1849 34.2618Z" fill="#AE0413"/>
<path d="M84.2761 108.373C84.4765 108.447 84.8465 108.57 85.024 108.657C84.3086 109.083 83.0012 110.075 82.3182 109.909C82.0191 109.125 82.8732 108.989 83.4559 108.83C83.8745 108.68 83.9265 108.648 84.2761 108.373Z" fill="#F4444B"/>
<path d="M45.5498 96.3838C46.0725 96.0419 46.6473 95.5654 47.2491 95.6626C47.0722 96.5841 45.2612 97.2229 44.4193 97.3177L44.3346 97.3276C44.2853 97.3312 44.236 97.3348 44.1868 97.3384C44.557 97.1481 45.2188 96.6501 45.5498 96.3838Z" fill="#B9283A"/>
<path d="M27.6281 86.6602C26.9157 85.8429 27.4767 84.7406 28.3032 84.2073C28.4709 84.0991 28.677 84.2215 28.875 84.2859C28.492 84.8801 27.7502 85.9822 27.6281 86.6602Z" fill="#C40D1C"/>
<path d="M79.4196 63.9059C79.4509 63.921 79.483 63.9348 79.5136 63.9512C80.055 64.2412 80.8673 66.1343 81.0191 66.7345C80.8562 66.7115 80.66 66.6896 80.5254 66.5874C79.9215 66.1288 79.5557 64.6292 79.4196 63.9059Z" fill="#C40D1C"/>
<path d="M60.5146 95.1658C60.235 94.4177 59.5226 92.4458 59.4233 91.7511L59.5671 91.6113C59.8509 91.8489 60.6083 94.5948 60.7687 95.1094L60.5146 95.1658Z" fill="#AE0413"/>
<path d="M92.3227 99.4628L92.4581 99.7288C92.4167 100.756 91.8896 101.895 91.2575 102.704L91.1192 102.469C91.544 101.46 91.9882 100.511 92.3227 99.4628Z" fill="#C40D1C"/>
<path d="M82.7269 104.337L82.8801 104.045C83.259 103.78 84.2018 103.089 84.6357 103.16L84.5182 103.43C83.9979 103.857 83.4421 104.352 82.8586 104.677L82.7269 104.337Z" fill="#6E030D"/>
<path d="M86.5945 98.0776L86.816 98.3396C86.759 99.1923 86.1375 100.743 85.5048 101.46C85.5086 101.48 86.5036 98.455 86.5945 98.0776Z" fill="#C40D1C"/>
<path d="M60.2404 19.4153C61.1787 19.6776 62.3674 20.1316 63.1182 20.7571C62.2382 20.74 60.9315 19.9528 60.2404 19.4153Z" fill="#C40D1C"/>
<path d="M38.916 21.2924C38.5911 21.99 38.1427 22.8481 37.685 23.4679L37.5433 23.1091C38.0045 22.4673 38.4129 21.9033 38.916 21.2924Z" fill="#6E030D"/>
<path d="M33.3407 22.1757C33.462 22.2059 33.5239 22.2629 33.6258 22.3351C33.5507 23.1472 31.6604 24.5407 31.0224 25.1366C28.6339 27.3677 26.5818 29.5919 24.7599 32.3289C24.0597 33.381 23.6229 34.5801 22.8306 35.5764L22.6071 35.5865L22.579 35.3274C24.7696 30.2399 29.0559 25.6329 33.3407 22.1757Z" fill="#F02430"/>
<path d="M120.142 79.5962C120.172 79.614 120.212 79.7349 120.226 79.769C118.756 83.5184 114.089 90.3602 111.289 93.2086C110.716 93.7917 110.011 94.2996 109.366 94.8027L109.238 94.5983C109.381 94.1395 111.46 92.1696 111.924 91.5831C114.425 88.424 117.012 85.0656 118.954 81.5267C119.298 80.9001 119.603 80.0762 120.142 79.5962Z" fill="#C1866F"/>
<path d="M16.3698 38.4464L16.8486 38.7849C16.1676 40.2213 14.8575 42.2008 13.977 43.5916C13.4893 44.8663 12.147 48.1256 11.5355 49.3181L11.3219 49.1483C11.4299 48.7084 11.4203 48.6055 11.4077 48.1608C11.8144 46.9006 12.8319 44.7628 13.3785 43.368C13.6288 42.7599 15.9111 39.1576 16.3698 38.4464Z" fill="#9B8483"/>
<path d="M106.788 96.396C106.925 96.3881 107.066 96.3865 107.202 96.413C107.647 96.4996 108.139 96.7144 108.367 97.1241C108.523 97.4043 108.535 97.7576 108.438 98.0599C108.265 98.599 107.829 98.8528 107.36 99.1106C107.152 99.1228 106.918 99.1465 106.712 99.1176C106.384 99.0715 106.044 98.8225 105.864 98.5507C105.662 98.2459 105.645 97.8623 105.735 97.5171C105.891 96.917 106.286 96.6931 106.788 96.396Z" fill="#806464" fill-opacity="0.913725"/>
<path d="M16.3699 38.4464C17.1182 37.1237 20.1097 32.8617 21.3292 32.2026L21.3631 32.325C20.085 34.3561 18.2549 36.7285 16.8486 38.7849L16.3699 38.4464Z" fill="#9B8483"/>
<path d="M52.6325 8.81992L52.9228 9.28497C50.7578 9.37446 46.3656 11.9951 45.552 11.9402L45.6098 11.7608C47.383 10.2201 50.3896 9.42004 52.6325 8.81992Z" fill="#B16767"/>
<path d="M72.605 115.387L72.8408 115.372L72.8768 115.52L72.8014 115.577C71.6275 116.451 67.6841 116.857 66.2343 116.646L65.9504 116.483C66.5262 115.83 71.3917 115.905 72.605 115.387Z" fill="#F02430"/>
<path d="M11.4077 48.1608C11.4203 48.6055 11.4299 48.7084 11.3219 49.1483L11.5355 49.3181C11.4569 49.9437 10.087 53.9851 9.8075 54.5796C9.99356 51.9301 10.4438 50.6663 11.4077 48.1608Z" fill="#947171"/>
<path d="M20.7017 39.2544C20.8355 39.2677 21.0557 39.3246 21.1786 39.3905C21.4019 39.5103 21.5248 39.6259 21.5899 39.8715C21.7198 40.3618 21.3353 40.9714 21.1171 41.3977C20.8412 41.3975 20.6279 41.3815 20.406 41.2007C20.2106 41.0414 20.1034 40.8242 20.0936 40.573C20.0711 39.9888 20.3339 39.6737 20.7017 39.2544Z" fill="#944C4D"/>
<path d="M13.492 66.0066C13.5759 66.1068 13.6481 66.2118 13.6725 66.3428C13.7831 66.9373 13.8689 69.3539 13.6648 69.8722C13.6216 69.9818 13.4778 70.1311 13.4052 70.2316C13.2715 70.0383 13.194 69.855 13.1455 69.6246C12.9309 68.6023 12.902 66.8682 13.492 66.0066Z" fill="#D82E35"/>
<path d="M52.6325 8.81993C53.5041 8.57146 55.7584 7.84601 56.5507 7.93746L56.5808 8.08865C56.0351 8.62117 53.7433 9.19682 52.9228 9.28498L52.6325 8.81993Z" fill="#D82E35"/>
<path d="M80.3353 11.1794C80.8762 11.3512 81.0734 11.4129 81.2973 11.9455C81.2951 12.404 81.0481 12.7042 80.8007 13.0955C79.7148 13.155 79.426 11.9804 80.3353 11.1794Z" fill="#D82E35"/>
<path d="M78.8775 115.749C79.1077 115.7 79.299 115.729 79.5301 115.762L79.5918 115.902C79.5725 115.926 79.5542 115.952 79.5339 115.975C79.1426 116.43 77.2904 116.658 76.7021 116.72C76.3713 116.785 76.042 116.873 75.7467 116.695C76.1579 116.17 78.1646 115.905 78.8775 115.749Z" fill="#D82E35"/>
<path d="M14.0325 82.0801C14.1802 82.0918 14.349 82.1158 14.4883 82.1682C14.7822 82.2788 15.0689 82.6019 15.1709 82.8912C15.3417 83.3765 15.2359 83.642 15.0376 84.0867C14.6346 83.928 14.2784 83.5747 14.0756 83.1936C13.8557 82.7801 13.8942 82.5028 14.0325 82.0801Z" fill="#D82E35"/>
<path d="M114.225 56.337C114.591 56.4108 114.834 56.5358 115.061 56.825C115.019 57.2341 114.89 57.3571 114.654 57.6868C114.533 57.6761 114.413 57.6613 114.298 57.6201C113.987 57.5089 113.843 57.3423 113.695 57.0619C113.778 56.6328 113.895 56.6072 114.225 56.337Z" fill="#D82E35"/>
<path d="M107.057 91.3966C107.334 91.5844 107.386 91.6166 107.517 91.9204C107.415 92.307 107.021 92.5651 106.725 92.8187C106.471 92.5852 106.341 92.511 106.259 92.1659C106.388 91.7953 106.747 91.6128 107.057 91.3966Z" fill="#C40D1C"/>
<path d="M113.284 22.4182C113.471 22.3242 113.695 22.3406 113.866 22.4607C114.037 22.5808 114.128 22.7851 114.102 22.9924C114.077 23.1996 113.939 23.3758 113.744 23.451C113.462 23.5596 113.144 23.4283 113.021 23.1527C112.899 22.8771 113.014 22.5541 113.284 22.4182Z" fill="#D82E35"/>
<path d="M52.9126 100.939C53.2842 101.066 53.4263 101.076 53.6748 101.389C53.6035 101.782 53.4884 101.887 53.2421 102.193C53.1716 102.205 53.1365 102.215 53.06 102.204C52.7931 102.162 52.738 101.955 52.6321 101.745C52.6585 101.357 52.6715 101.266 52.9126 100.939Z" fill="#C40D1C"/>
<path d="M128.45 66.0824C129.039 65.4949 129.249 62.9589 129.687 61.834C130.078 62.9597 128.883 64.8348 129.385 65.9421C127.76 71.2288 126.791 76.4954 124.095 81.4478C123.519 82.5055 123.171 83.8008 122.524 84.9781C113.487 101.457 96.476 113.669 78.6723 119.164C78.0179 119.366 76.9745 119.34 76.224 119.508C65.8564 121.825 56.0028 121.691 45.5926 119.685C32.1121 117.088 20.4347 108.314 12.246 97.5459C11.2263 96.2045 10.2311 94.8662 9.44611 93.416C9.74766 93.3744 10.0777 93.3506 10.3829 93.3224C10.9409 93.8558 12.2065 96.1278 12.7232 96.8622C13.4617 97.9114 14.2706 98.859 15.1082 99.8303C21.7631 107.641 30.3182 113.615 39.9529 117.18C46.3497 119.494 53.6814 120.217 60.5565 120.257C88.9817 120.423 116.174 101.117 125.988 74.611C127.026 71.8075 127.417 68.8854 128.408 66.1943L128.45 66.0824Z" fill="#A58987"/>
<path d="M1.78638 80.1002L1.8987 79.5524L2.44645 79.6671C3.25857 83.6741 4.96473 88.5919 6.62903 92.3726C7.14917 93.5541 8.39928 95.1519 9.12463 96.6813C9.23834 96.7727 10.4835 98.5828 10.7279 98.9052C11.7569 100.247 12.8138 101.568 13.8978 102.866C16.9574 106.499 22.6024 110.262 26.6352 112.66C40.5928 120.928 57.0329 124.004 73.0457 121.344C76.9197 120.688 81.3224 119.509 85.2235 118.681C88.672 117.518 92.4639 116.519 95.771 114.935C104.712 110.65 112.641 103.994 118.756 96.2487C120.388 94.1809 121.706 91.8721 123.149 89.8441L123.623 90.1638C116.88 101.817 106.607 111.038 94.2815 116.503C79.8139 122.979 60.2568 125.387 44.7463 121.424C32.1184 118.197 19.5071 111.33 11.3831 101.133C10.6097 100.162 8.32314 97.4303 7.89497 96.2836C5.29432 93.0131 2.21431 84.2781 1.78638 80.1002Z" fill="#A3807E"/>
<path d="M1.78638 80.1002L1.8987 79.5524L2.44645 79.6671C3.25857 83.6741 4.96473 88.5919 6.62903 92.3726C7.14917 93.5541 8.39928 95.1519 9.12463 96.6813C9.07213 96.6777 8.79155 96.6089 8.77798 96.5785C8.28523 95.3966 7.39131 94.4303 6.77216 93.3462C6.32584 92.5646 6.22571 91.6135 5.54164 90.8944C5.65724 92.6403 7.20161 94.6428 7.97188 96.0447L7.89497 96.2836C5.29432 93.0131 2.21431 84.2781 1.78638 80.1002Z" fill="#9E8E8B"/>
<path d="M65.0921 1.71776L65.1466 1.7233C65.57 1.76349 68.784 1.38624 69.3146 1.2869L69.7023 1.51154L69.6411 1.63211C68.696 1.72615 67.7402 1.7683 66.7912 1.81976L66.7033 2.04741C65.1909 2.34402 63.817 2.39118 62.3403 2.9524L62.4009 3.03631C63.9613 2.9574 65.4645 2.72134 67.0281 2.65278C71.8364 2.4419 76.7548 2.76251 81.5575 3.04134C83.8138 3.17233 86.4257 3.89749 88.6854 4.18349C89.6794 4.36606 91.6031 4.83946 92.5142 4.94274L92.8806 5.66566C91.4455 5.52398 90.11 5.1654 88.7036 4.96993C80.0619 3.76874 70.892 2.85384 62.1927 3.91351C57.4017 4.49709 51.9988 5.74958 47.5992 7.74951C45.7792 8.57681 43.9304 9.36408 42.1568 10.2798C40.3021 11.2955 38.7005 12.5105 36.7364 13.4427L36.7154 13.2982C36.2232 13.3152 35.9867 13.759 35.6 13.8331L35.5238 13.5701C35.5951 13.412 35.5485 13.4104 35.4751 13.1888L35.7045 12.996C36.5337 12.797 37.7494 12.3965 38.2571 11.6888C37.8378 11.742 36.0512 12.7029 35.5404 12.9443C34.3875 13.1753 25.8402 19.6539 24.2427 20.7285C23.4033 21.7726 21.9613 23.374 20.7999 24.0583C20.4647 24.5229 18.9306 26.5958 18.5616 26.8744C18.1552 27.3939 17.7754 27.7217 17.2943 28.1625L17.0316 27.4105L17.5458 26.8556C17.8433 26.3966 19.4211 24.5959 19.8302 24.1273C21.0557 22.8108 22.1406 21.4733 23.6108 20.4171C23.9758 19.7756 28.5861 16.4833 29.4441 15.896C32.3525 13.9056 35.6808 11.6569 38.8335 10.0351C41.6724 8.99206 44.6507 7.14207 47.4501 6.18448C53.0023 4.28519 59.396 2.46661 65.0921 1.71776Z" fill="#947171"/>
<path d="M23.6108 20.4171L23.5622 20.5109C23.2029 21.1902 21.1219 22.8788 21.1547 23.3168L21.3298 23.3495C22.199 22.7484 23.6683 20.689 24.2427 20.7285C23.4033 21.7726 21.9613 23.374 20.7999 24.0583C20.4647 24.5229 18.9306 26.5958 18.5616 26.8744C18.1552 27.3939 17.7754 27.7217 17.2943 28.1625L17.0316 27.4105L17.5458 26.8556C17.8433 26.3966 19.4211 24.5959 19.8302 24.1273C21.0557 22.8108 22.1406 21.4733 23.6108 20.4171Z" fill="#B16767"/>
<path d="M17.5458 26.8556L17.9908 26.9847L18.2372 26.7855L18.5616 26.8744C18.1552 27.3939 17.7754 27.7217 17.2943 28.1625L17.0316 27.4105L17.5458 26.8556Z" fill="#947171"/>
<path d="M112.805 16.7756C115.873 18.6283 119.161 21.9609 121.521 24.6533C123.049 26.6212 124.39 28.9299 125.826 30.9923C125.447 29.9299 122.819 25.1354 122.076 24.3933L121.996 23.9877C121.744 23.1599 120.963 23.3861 120.792 21.9624C121.285 22.0731 121.603 23.4001 122.573 23.6771C123.205 24.244 123.77 25.5516 124.238 26.3527C124.667 27.0886 125.59 28.2848 125.925 28.986C127.586 32.4595 129.239 36.0803 130.385 39.756C130.756 40.9469 130.789 42.1101 131.156 43.2393C130.805 43.6968 130.847 44.2302 130.825 44.8085C130.342 42.8813 130.043 40.6372 129.148 38.7302C129.048 38.5663 128.69 37.5696 128.599 37.3292C128.144 35.9659 127.821 35.0573 127.083 33.8291C127.377 34.9897 128.038 36.629 128.441 37.8232C128.626 38.2377 128.843 38.7228 128.952 39.1635C130.484 43.0804 130.786 48.0623 130.696 52.2026C130.68 52.9255 130.653 55.6083 130.724 56.236C130.604 60.291 129.961 62.1542 129.385 65.9421C128.883 64.8348 130.078 62.9597 129.687 61.834C129.249 62.9589 129.039 65.4949 128.45 66.0824C128.461 65.8027 129.145 62.41 129.253 61.77C129.835 58.2966 130.046 55.3046 130.001 51.7883C129.897 43.5675 127.449 34.6292 122.796 27.7859C121.323 25.6194 119.579 23.7684 117.779 21.8886C116.033 20.0648 114.004 18.8844 112.307 17.2522L112.805 16.7756Z" fill="#9B8483"/>
<path d="M78.1797 2.05695C80.7133 1.8414 82.788 2.18413 85.2735 2.63826C86.2526 2.81719 89.0233 3.01763 89.6682 3.75073L89.4609 3.87711C87.0888 3.05915 81.3219 2.39953 78.7328 2.4373L78.1797 2.05695Z" fill="#7F605D"/>
<path d="M78.7327 2.43729C78.1769 2.45104 78.0663 2.45881 77.5617 2.24269L77.6274 2.11964L78.1797 2.05695L78.7327 2.43729Z" fill="#947171" fill-opacity="0.894118"/>
<path d="M19.2485 28.0626L19.3278 28.0385C19.6608 27.9336 19.7193 27.9048 20.0073 27.7128C20.1838 27.8285 20.2094 27.8436 20.3682 27.9977C17.1244 31.9883 14.4338 35.6644 11.9182 40.165C3.54785 55.1397 1.3668 75.5937 9.43578 91.1691C9.12029 91.4912 9.11543 91.6501 8.64521 91.562C2.89005 80.8278 2.28693 66.3964 5.34266 54.8025C5.69307 53.473 5.76132 52.0894 6.21324 50.7502C7.51983 46.8788 9.24598 43.1134 11.1393 39.4954C11.3282 39.1344 11.9069 38.5543 12.1592 38.1443C12.5692 37.478 12.9602 36.5012 13.3541 35.886C13.9757 34.915 14.934 33.5756 15.6289 32.6751C16.443 31.6201 18.3576 28.791 19.2485 28.0626Z" fill="#9E8F8D"/>
<path d="M17.0316 27.4105L17.2943 28.1625C16.8256 28.8616 16.4492 29.5309 15.9928 30.229C15.2932 31.2993 14.2475 32.4741 13.6307 33.5833C12.3156 35.9274 11.0418 38.2958 9.80739 40.6831C9.26253 41.7368 8.89352 43.137 8.34786 44.1333C6.85447 46.86 6.07628 49.3188 5.13514 52.2446C3.82653 56.3129 2.52325 60.4093 2.09195 64.6974C1.73878 68.5101 1.95844 72.9257 2.00061 76.7778C2.12691 77.7024 2.2477 78.7679 2.44648 79.6671L1.89873 79.5524L1.78641 80.1002C1.71219 79.7098 1.6517 79.2883 1.58767 78.8936C1.57066 78.8317 1.54534 78.7459 1.53573 78.6847C0.463632 71.8658 1.06443 64.8578 2.28982 58.1002C2.75081 55.558 3.94088 52.4375 4.84491 50.0219C7.13254 43.7249 10.1009 37.6949 13.6974 32.0391C14.6272 30.5908 15.9904 28.9485 17.0316 27.4105Z" fill="#988A88"/>
<path d="M1.58765 78.8936C1.59139 78.5602 1.60036 78.2803 1.62376 77.9457C1.70279 78.1609 1.78509 78.5066 1.93563 78.6249C2.04589 77.8918 1.50874 77.5698 2.00059 76.7778C2.12689 77.7024 2.24768 78.7679 2.44646 79.6671L1.89871 79.5524L1.78639 80.1002C1.71217 79.7098 1.65167 79.2883 1.58765 78.8936Z" fill="#9B8483"/>
<path d="M131.939 51.7263L132.005 51.718C132.181 51.5436 132.141 51.3905 132.174 51.0924L132.329 51.1492C132.31 51.3993 132.311 51.4147 132.348 51.6627L132.671 51.7827C132.934 53.0226 132.961 54.7522 132.988 56.0446C133.155 64.1252 131.743 72.6793 128.713 80.1854C128.41 80.9392 127.644 82.7435 127.148 83.2714C127.04 84.2397 126.77 84.7069 126.324 85.5704L125.858 84.8336C125.984 84.5773 126.088 84.4004 126.239 84.1571C129.176 77.6322 131.325 71.4512 131.795 64.2457C132.491 61.802 132.069 54.3643 131.939 51.7263Z" fill="#9E8E8B"/>
<path d="M126.239 84.1571C127.115 83.7192 126.569 83.6205 127.148 83.2714C127.04 84.2397 126.77 84.7069 126.324 85.5704L125.858 84.8336C125.984 84.5773 126.088 84.4004 126.239 84.1571Z" fill="#9B8483"/>
<path d="M65.092 1.71777C65.9816 1.45388 68.021 1.18417 68.9591 1.04888C74.5114 0.248038 82.1635 0.238584 87.5724 1.59348C87.6614 1.97091 87.6817 2.01079 87.982 2.25565C85.8008 1.89785 82.9767 1.76589 80.6982 1.55239C76.16 1.12709 71.2006 1.76665 66.7033 2.04742L66.7911 1.81977C67.7402 1.76832 68.6959 1.72617 69.6411 1.63213L69.7023 1.51156L69.3146 1.28691C68.7839 1.38625 65.5699 1.76351 65.1466 1.72331L65.092 1.71777Z" fill="#7F605D"/>
<path d="M129.148 38.7302C130.043 40.6372 130.342 42.8813 130.825 44.8085C131.134 47.1243 131.622 49.3435 131.939 51.7263C132.069 54.3643 132.491 61.802 131.795 64.2457C131.435 62.9957 131.812 55.4424 131.216 54.925C130.901 55.3438 130.904 56.8339 130.884 57.3972C130.841 57.0088 130.787 56.6215 130.724 56.236C130.653 55.6083 130.68 52.9255 130.696 52.2026C130.786 48.0623 130.484 43.0804 128.952 39.1634L129.148 38.7302ZM131.431 52.0123L131.697 51.9008C131.732 51.5459 131.725 51.2853 131.634 50.938L131.476 50.8192L131.388 51.0238L131.491 51.0409C131.474 51.059 131.457 51.0769 131.44 51.0953C131.289 51.2587 131.219 51.3424 131.189 51.5634L131.431 52.0123Z" fill="#867C7D" fill-opacity="0.0156863"/>
<path d="M87.5724 1.59348C92.2354 2.21879 95.8923 3.17324 100.233 5.06075C101.582 5.61702 103.204 6.02359 104.443 6.76633C105.254 7.2528 105.946 7.22676 106.467 7.50695C106.16 8.05859 106.053 8.02977 106.177 8.62018C104.691 7.87152 101.591 6.13321 100.101 5.68167C98.4313 5.37158 97.4799 4.78078 95.9926 4.36064C93.4022 3.62883 90.6018 2.83115 87.9821 2.25565C87.6817 2.01078 87.6614 1.9709 87.5724 1.59348Z" fill="#7F605D"/>
<path d="M110.254 12.8774L110.363 12.9287C110.848 13.1577 111.815 13.8187 112.161 13.8971C112.137 13.6301 111.787 13.3271 111.585 13.1415L112.43 13.0999C116.207 16.6077 119.611 19.2382 122.573 23.6771C121.603 23.4001 121.285 22.0731 120.792 21.9624C120.963 23.3861 121.744 23.1599 121.996 23.9877C121.764 23.9207 121.529 23.7701 121.385 23.5818C119.683 21.3608 117.834 19.2075 115.862 17.2157C114.271 15.6089 111.873 14.62 109.972 13.3683L110.254 12.8774Z" fill="#7F605D"/>
<path d="M24.4458 22.3586C25.0766 21.384 30.4915 16.8462 31.6658 16.1157L31.9414 16.6787C29.5574 19.0332 27.0204 20.9469 24.5685 23.4617C23.5627 24.5079 21.1234 26.9528 20.3682 27.9977C20.2094 27.8436 20.1837 27.8285 20.0073 27.7128C19.7193 27.9048 19.6608 27.9336 19.3278 28.0385L19.2485 28.0626C19.9901 27.35 20.6852 26.2954 21.4406 25.5157C22.5043 24.4176 23.4709 23.5563 24.4458 22.3586Z" fill="#9B8483"/>
<path d="M3.41721 100.111C2.84782 100.467 2.39784 100.575 1.75624 100.329C1.23515 100.127 0.822419 99.7168 0.617691 99.1978C-0.0365714 97.5797 1.19677 96.7816 2.49839 96.2748C3.51547 96.6772 5.06004 97.3887 4.63527 98.7467L4.33128 98.5638C3.96208 98.7482 3.09842 99.7538 3.41721 100.111Z" fill="#7F605D" fill-opacity="0.756863"/>
<path d="M8.71886 27.7042C8.84823 27.7002 8.98377 27.7039 9.10762 27.746C9.551 27.8965 9.97898 28.2709 10.1679 28.6992C10.3741 29.1664 10.3458 29.7708 10.1493 30.2367C9.91056 30.8026 9.43406 31.023 8.8985 31.2472C8.62695 31.1907 8.3316 31.1373 8.07652 31.0273C7.62434 30.8323 7.21808 30.4032 7.05988 29.9375C6.9204 29.5269 6.97593 29.097 7.18006 28.7174C7.5134 28.0977 8.07934 27.8971 8.71886 27.7042Z" fill="#7F605D" fill-opacity="0.815686"/>
<path d="M115.321 12.4658C117.964 14.3879 120.478 16.4806 122.848 18.7305L122.921 19.2318C122.654 19.3911 122.605 19.3112 122.231 19.2448C119.82 16.8195 117.868 15.4796 115.375 13.2734C115.546 12.9125 115.467 12.9618 115.321 12.4658Z" fill="#7F605D"/>
<path d="M104.548 9.29166C106.921 10.2287 108.308 11.5469 110.254 12.8774L109.972 13.3683C108.445 12.6975 105.071 10.5625 103.514 9.62035C103.818 9.433 104.197 9.37186 104.548 9.29166Z" fill="#9B8483"/>
<path d="M130.825 44.8085C130.847 44.2302 130.805 43.6968 131.156 43.2393C131.657 45.4747 132.564 49.5052 132.671 51.7827L132.348 51.6627C132.311 51.4147 132.31 51.3993 132.329 51.1492L132.174 51.0924C132.141 51.3905 132.181 51.5436 132.005 51.718L131.939 51.7263C131.622 49.3435 131.134 47.1243 130.825 44.8085Z" fill="#9E8E8B"/>
<path d="M124.873 22.0166L125.104 21.5365L125.378 21.4645C127.232 23.6195 128.662 25.8296 130.382 27.951L129.68 28.1448C128.028 25.8917 126.605 24.153 124.873 22.0166Z" fill="#947171"/>
<path d="M130.94 28.9937L130.984 29.1014C131.773 30.9795 133.739 33.0477 133.968 35.245L133.881 35.4567C133.49 35.1719 130.743 30.1045 130.488 29.4456C130.663 29.0857 130.555 29.21 130.94 28.9937Z" fill="#9B8483"/>
<path d="M35.4751 13.1888C35.5485 13.4104 35.5951 13.412 35.5238 13.5701L35.6 13.8331C35.9867 13.759 36.2232 13.3152 36.7154 13.2982L36.7364 13.4427C35.8148 14.0563 32.6411 16.449 31.9414 16.6787L31.6658 16.1157C32.2942 15.3741 34.5085 13.9529 35.4751 13.1888Z" fill="#9B8483"/>
<path d="M110.459 7.90628C110.801 8.07328 111.154 8.28209 111.523 8.328L110.973 8.42931L110.867 8.60683C111.07 8.99081 111.508 9.1145 111.91 9.23963C111.974 9.25959 112.039 9.27901 112.103 9.29788C112.243 9.17233 112.251 9.18334 112.318 9.01076C112.606 9.46763 112.557 9.9949 112.552 10.5423C111.675 10.2037 111.233 10.5601 110.306 10.1122C109.869 9.72217 109.781 8.99603 109.732 8.43774L110.459 7.90628Z" fill="#7F605D" fill-opacity="0.768627"/>
<path d="M112.307 17.2522C110.884 16.3208 109.026 16.0386 107.794 14.8894L107.794 14.6917C108.85 14.1223 111.784 16.1542 112.805 16.7756L112.307 17.2522Z" fill="#944C4D"/>
<path d="M125.858 84.8336L126.324 85.5704C125.518 86.7932 124.775 88.3713 124.059 89.4066L123.623 90.1638L123.149 89.8441C123.204 89.6395 123.649 88.7011 123.763 88.452C124.449 87.3639 125.256 85.9611 125.858 84.8336Z" fill="#9E8E8B"/>
<path d="M111.152 11.6633C111.134 11.4855 111.005 11.3044 110.934 11.1206L111.175 10.9206C111.707 10.8927 112.131 10.8084 112.65 10.7141C113.422 11.2031 114.634 11.9246 115.321 12.4658C115.467 12.9618 115.546 12.9125 115.375 13.2734C113.799 12.47 112.825 11.4221 111.152 11.6633Z" fill="#7F605D" fill-opacity="0.984314"/>
<path d="M136.46 55.5414C136.597 55.5546 136.733 55.5723 136.868 55.5973C137.18 55.6549 137.492 55.761 137.661 56.0536C137.811 56.3109 137.828 56.5457 137.732 56.8242C137.605 57.197 137.292 57.41 136.96 57.5819C136.813 57.589 136.665 57.5948 136.517 57.5861C136.155 57.5646 135.916 57.4312 135.681 57.1624C135.599 56.9667 135.536 56.7921 135.58 56.5779C135.689 56.058 136.044 55.8152 136.46 55.5414Z" fill="#7F605D" fill-opacity="0.984314"/>
<path d="M100.264 7.37323C101.587 8.05082 103.132 8.89668 104.548 9.29165C104.197 9.37185 103.818 9.433 103.514 9.62035C102.556 9.33346 99.9662 8.14298 98.9841 7.66967L100.264 7.37323Z" fill="#867C7D"/>
<path d="M137.817 48.4108C138.217 48.483 138.53 48.6222 138.776 48.951C138.933 49.1598 138.978 49.4041 138.94 49.6592C138.867 50.1525 138.536 50.3528 138.159 50.6252C138.139 50.6293 138.117 50.6351 138.095 50.6371C137.734 50.6708 137.524 50.5405 137.262 50.3105C137.151 50.0992 137.084 49.9293 137.097 49.6899C137.131 49.0712 137.38 48.8119 137.817 48.4108Z" fill="#7F605D" fill-opacity="0.972549"/>
<path d="M122.076 24.3933C122.819 25.1354 125.447 29.9299 125.826 30.9923C124.39 28.9299 123.049 26.6212 121.521 24.6533C121.826 24.6265 121.835 24.604 122.076 24.3933Z" fill="#947171" fill-opacity="0.0431373"/>
<path d="M5.64729 36.0682C5.83004 36.1443 6.00216 36.2245 6.14866 36.3595C6.38447 36.5765 6.57773 36.8359 6.57536 37.171C6.57131 37.7441 6.12503 38.1167 5.7308 38.4634C5.45773 38.4086 5.24834 38.2954 5.0751 38.0736C4.89598 37.8442 4.84708 37.5837 4.87531 37.3019C4.93579 36.6979 5.19912 36.4343 5.64729 36.0682Z" fill="#806464" fill-opacity="0.988235"/>
<path d="M108.751 10.9807L108.877 10.4866C109.667 10.2934 110.098 11.8588 111.035 11.956C111.605 12.3674 111.928 12.5918 112.43 13.0999L111.585 13.1415C110.509 12.6533 109.545 11.8457 108.751 10.9807Z" fill="#806464" fill-opacity="0.972549"/>
<path d="M96.7164 5.96948C97.8947 6.45752 99.0589 6.95236 100.264 7.37322L98.984 7.66965C97.8579 7.23398 96.9178 6.72935 95.7203 6.43524L96.7164 5.96948Z" fill="#947171"/>
<path d="M106.467 7.50696C106.849 7.79866 106.989 7.89387 107.415 8.11456C108.055 8.47568 108.365 8.62191 108.888 9.15957L108.798 9.88022L108.489 9.64386C108.227 9.34537 106.639 8.80176 106.177 8.62019C106.053 8.02977 106.16 8.05859 106.467 7.50696Z" fill="#7E5D5D"/>
<path d="M108.888 9.15957C109.143 8.88375 109.436 8.66982 109.732 8.43774C109.781 8.99603 109.869 9.72218 110.306 10.1122C111.233 10.5601 111.675 10.2037 112.552 10.5423L112.605 10.6208C110.875 10.5226 110.71 11.2303 109.091 10.0776L108.835 10.1883L108.798 9.88022L108.888 9.15957Z" fill="#806464" fill-opacity="0.878431"/>
<path d="M122.848 18.7305C123.749 19.91 124.327 20.4341 125.378 21.4645L125.104 21.5365L124.873 22.0166C123.999 21.0751 123.146 20.1473 122.231 19.2448C122.605 19.3112 122.654 19.3911 122.921 19.2318L122.848 18.7305Z" fill="#806464"/>
<path d="M92.5142 4.94275C93.934 5.31443 95.3575 5.61548 96.7164 5.96949L95.7203 6.43525C95.3564 6.27977 93.2789 5.75566 92.8806 5.66566L92.5142 4.94275Z" fill="#867C7D"/>
<path d="M108.489 9.64386L108.798 9.88022L108.835 10.1883L109.091 10.0776C110.709 11.2303 110.875 10.5226 112.605 10.6208L112.65 10.7141C112.131 10.8084 111.707 10.8927 111.175 10.9206L110.934 11.1206C111.005 11.3044 111.134 11.4855 111.152 11.6633L111.035 11.956C110.098 11.8588 109.667 10.2934 108.877 10.4866L108.751 10.9807C108.538 10.392 108.481 10.262 108.489 9.64386Z" fill="#806464" fill-opacity="0.898039"/>
<path d="M9.43577 91.1691C9.52125 91.9254 9.98974 92.668 10.3829 93.3224C10.0777 93.3506 9.74767 93.3744 9.44612 93.416L8.6452 91.562C9.11543 91.6501 9.12028 91.4912 9.43577 91.1691Z" fill="#9B8483"/>
<path d="M9.42324 106.178C9.82075 106.178 10.2946 106.225 10.5956 106.503C10.7155 106.904 10.6315 106.983 10.4799 107.361C10.3725 107.38 10.2609 107.398 10.1514 107.392C9.85376 107.375 9.67092 107.204 9.47099 107.004C9.35347 106.649 9.3303 106.558 9.42324 106.178Z" fill="#D82E35"/>
<path d="M87.6139 121.175C87.8192 121.154 87.8958 121.185 88.0801 121.278L88.0204 121.469C87.4829 121.922 86.8138 122.197 86.1858 122.502L86.0042 122.571L85.8424 122.482C85.8511 122.451 85.8583 122.419 85.8685 122.389C86.025 121.921 87.1783 121.404 87.6139 121.175Z" fill="#C40D1C"/>
<path d="M128.441 37.8232C128.038 36.629 127.377 34.9897 127.083 33.8291C127.821 35.0573 128.144 35.9659 128.599 37.3292L128.441 37.8232Z" fill="#9B8483" fill-opacity="0.576471"/>
<path d="M3.4172 100.111C3.09841 99.7538 3.96207 98.7482 4.33127 98.5638L4.63527 98.7467C4.31525 99.3531 4.06642 99.8164 3.4172 100.111Z" fill="#7F605D" fill-opacity="0.811765"/>
<path d="M129.68 28.1448L130.382 27.951C130.587 28.2968 130.795 28.6187 130.94 28.9937C130.555 29.21 130.663 29.0857 130.488 29.4456C130.314 28.9719 129.979 28.5565 129.68 28.1448Z" fill="#9E8E8B"/>
<path d="M111.523 8.328C111.912 8.57467 112.046 8.63448 112.318 9.01077C112.251 9.18335 112.243 9.17234 112.103 9.29789C112.039 9.27902 111.974 9.25959 111.91 9.23964C111.508 9.1145 111.07 8.99082 110.867 8.60684L110.973 8.42932L111.523 8.328Z" fill="#7F605D" fill-opacity="0.831373"/>
<path d="M35.5404 12.9443C36.0512 12.7029 37.8378 11.7421 38.2571 11.6888C37.7493 12.3965 36.5336 12.797 35.7045 12.996L35.5404 12.9443Z" fill="#9B8483" fill-opacity="0.180392"/>
<path d="M107.809 7.6082C107.46 7.4374 107.226 7.35255 106.984 7.04125L107.068 6.92249C107.737 7.06661 108.408 7.36074 108.89 7.86082C108.507 7.9064 108.175 7.74308 107.809 7.6082Z" fill="#944C4D"/>
<path d="M128.441 37.8232L128.599 37.3292C128.69 37.5696 129.048 38.5663 129.148 38.7302L128.952 39.1635C128.843 38.7228 128.626 38.2377 128.441 37.8232Z" fill="#9B8483" fill-opacity="0.384314"/>
<path d="M199.847 45.976C199.847 44.584 199.703 43.528 199.415 42.808C199.127 42.088 198.551 41.584 197.687 41.296C196.823 41.008 195.503 40.864 193.727 40.864C193.583 40.864 193.511 40.72 193.511 40.432C193.511 40.144 193.583 40 193.727 40C194.927 40 196.295 40.048 197.831 40.144C199.415 40.192 201.239 40.216 203.303 40.216C204.983 40.216 206.639 40.192 208.271 40.144C209.903 40.048 211.319 40 212.519 40C212.663 40 212.735 40.144 212.735 40.432C212.735 40.72 212.663 40.864 212.519 40.864C210.839 40.864 209.567 41.008 208.703 41.296C207.887 41.536 207.335 42.016 207.047 42.736C206.759 43.408 206.615 44.44 206.615 45.832V79.168C206.615 80.56 206.759 81.616 207.047 82.336C207.335 83.056 207.887 83.536 208.703 83.776C209.567 84.016 210.839 84.136 212.519 84.136C212.663 84.136 212.735 84.28 212.735 84.568C212.735 84.856 212.663 85 212.519 85C211.319 85 209.903 84.976 208.271 84.928C206.639 84.88 204.983 84.856 203.303 84.856C201.239 84.856 199.415 84.88 197.831 84.928C196.295 84.976 194.927 85 193.727 85C193.583 85 193.511 84.856 193.511 84.568C193.511 84.28 193.583 84.136 193.727 84.136C195.503 84.136 196.823 84.016 197.687 83.776C198.551 83.536 199.127 83.056 199.415 82.336C199.703 81.616 199.847 80.56 199.847 79.168V45.976ZM171.407 62.536V60.664H202.943V62.536H171.407ZM168.239 79.168V45.832C168.239 44.44 168.095 43.408 167.807 42.736C167.519 42.016 166.967 41.536 166.151 41.296C165.335 41.008 164.087 40.864 162.407 40.864C162.311 40.864 162.263 40.72 162.263 40.432C162.263 40.144 162.311 40 162.407 40C163.655 40 165.047 40.048 166.583 40.144C168.119 40.192 169.727 40.216 171.407 40.216C173.471 40.216 175.295 40.192 176.879 40.144C178.463 40.048 179.879 40 181.127 40C181.223 40 181.271 40.144 181.271 40.432C181.271 40.72 181.223 40.864 181.127 40.864C179.399 40.864 178.103 41.008 177.239 41.296C176.375 41.584 175.799 42.088 175.511 42.808C175.223 43.528 175.079 44.584 175.079 45.976V79.168C175.079 80.56 175.223 81.616 175.511 82.336C175.799 83.056 176.375 83.536 177.239 83.776C178.151 84.016 179.447 84.136 181.127 84.136C181.223 84.136 181.271 84.28 181.271 84.568C181.271 84.856 181.223 85 181.127 85C179.831 85 178.391 84.976 176.807 84.928C175.271 84.88 173.471 84.856 171.407 84.856C169.727 84.856 168.095 84.88 166.511 84.928C164.927 84.976 163.535 85 162.335 85C162.239 85 162.191 84.856 162.191 84.568C162.191 84.28 162.239 84.136 162.335 84.136C164.015 84.136 165.263 84.016 166.079 83.776C166.895 83.536 167.447 83.056 167.735 82.336C168.071 81.616 168.239 80.56 168.239 79.168ZM231.363 85.864C228.339 85.864 225.771 85.216 223.659 83.92C221.547 82.624 219.939 80.92 218.835 78.808C217.779 76.648 217.251 74.368 217.251 71.968C217.251 69.088 217.947 66.496 219.339 64.192C220.731 61.888 222.627 60.04 225.027 58.648C227.427 57.256 230.139 56.56 233.163 56.56C235.995 56.56 238.203 57.232 239.787 58.576C241.371 59.92 242.163 62.008 242.163 64.84C242.163 65.464 242.115 65.968 242.019 66.352C241.923 66.736 241.707 66.928 241.371 66.928H235.467C235.611 64.144 235.275 61.96 234.459 60.376C233.691 58.792 232.395 58 230.571 58C228.411 58 226.707 59.008 225.459 61.024C224.259 62.992 223.659 65.632 223.659 68.944C223.659 71.728 224.091 74.152 224.955 76.216C225.819 78.232 227.091 79.816 228.771 80.968C230.451 82.12 232.515 82.696 234.963 82.696C236.451 82.696 237.699 82.504 238.707 82.12C239.715 81.688 240.795 81.16 241.947 80.536C242.043 80.44 242.163 80.488 242.307 80.68C242.499 80.872 242.547 81.04 242.451 81.184C240.723 82.864 238.947 84.064 237.123 84.784C235.347 85.504 233.427 85.864 231.363 85.864ZM221.571 67L221.499 65.776L237.483 65.488V66.928L221.571 67ZM267.301 85.432C267.109 85.528 266.893 85.576 266.653 85.576C265.885 85.576 265.117 85.024 264.349 83.92C263.581 82.816 263.197 81.208 263.197 79.096V66.424C263.197 63.4 262.885 61.216 262.261 59.872C261.685 58.528 260.749 57.856 259.453 57.856C258.253 57.856 257.317 58.216 256.645 58.936C256.021 59.608 255.565 60.4 255.277 61.312C254.989 62.176 254.821 62.92 254.773 63.544C254.629 64.744 254.245 65.656 253.621 66.28C253.045 66.904 252.205 67.216 251.101 67.216C249.997 67.216 249.205 66.976 248.725 66.496C248.245 65.968 248.005 65.368 248.005 64.696C248.005 63.64 248.485 62.632 249.445 61.672C250.453 60.664 251.701 59.776 253.189 59.008C254.725 58.24 256.309 57.64 257.941 57.208C259.573 56.728 261.013 56.488 262.261 56.488C264.229 56.488 265.837 57.112 267.085 58.36C268.381 59.608 269.029 61.576 269.029 64.264V77.224C269.029 78.712 269.269 79.84 269.749 80.608C270.229 81.376 270.925 81.76 271.837 81.76C272.605 81.76 273.469 81.544 274.429 81.112C274.669 81.016 274.837 81.112 274.933 81.4C275.029 81.64 274.957 81.808 274.717 81.904L267.301 85.432ZM253.765 85.504C251.749 85.504 250.237 85.024 249.229 84.064C248.269 83.104 247.789 81.88 247.789 80.392C247.789 79.048 248.149 77.968 248.869 77.152C249.589 76.288 250.597 75.592 251.893 75.064C253.189 74.488 254.629 73.912 256.213 73.336L263.917 70.456L264.133 71.536L258.877 73.768C258.301 73.96 257.677 74.248 257.005 74.632C256.333 74.968 255.757 75.424 255.277 76C254.845 76.576 254.629 77.344 254.629 78.304C254.629 79.456 255.013 80.392 255.781 81.112C256.549 81.784 257.413 82.12 258.373 82.12C258.805 82.12 259.237 82.072 259.669 81.976C260.101 81.832 260.605 81.568 261.181 81.184L265.069 78.592L265.141 79.672L260.029 83.272C258.925 84.04 257.893 84.616 256.933 85C256.021 85.336 254.965 85.504 253.765 85.504ZM285.871 65.488L285.367 64.624C287.191 62.464 288.727 60.808 289.975 59.656C291.271 58.456 292.351 57.64 293.215 57.208C294.079 56.728 294.895 56.488 295.663 56.488C296.671 56.488 297.679 56.848 298.687 57.568C299.743 58.24 300.271 59.104 300.271 60.16C300.271 61.024 300.007 61.744 299.479 62.32C298.951 62.896 298.207 63.184 297.247 63.184C296.383 63.184 295.711 62.944 295.231 62.464C294.751 61.984 294.295 61.528 293.863 61.096C293.431 60.664 292.831 60.448 292.063 60.448C291.679 60.448 291.271 60.568 290.839 60.808C290.407 61 289.807 61.456 289.039 62.176C288.271 62.896 287.215 64 285.871 65.488ZM277.663 85C277.519 85 277.447 84.856 277.447 84.568C277.447 84.28 277.519 84.136 277.663 84.136C279.295 84.136 280.375 83.8 280.903 83.128C281.431 82.456 281.695 81.136 281.695 79.168V65.416C281.695 63.88 281.527 62.752 281.191 62.032C280.855 61.312 280.255 60.952 279.391 60.952C278.959 60.952 278.431 61.048 277.807 61.24C277.183 61.432 276.511 61.696 275.791 62.032C275.599 62.08 275.431 61.984 275.287 61.744C275.191 61.456 275.215 61.288 275.359 61.24L284.791 56.632C285.031 56.536 285.199 56.488 285.295 56.488C285.775 56.488 286.255 57.04 286.735 58.144C287.263 59.248 287.527 60.856 287.527 62.968V79.168C287.527 80.464 287.719 81.496 288.103 82.264C288.487 82.984 289.159 83.488 290.119 83.776C291.079 84.016 292.423 84.136 294.151 84.136C294.343 84.136 294.439 84.28 294.439 84.568C294.439 84.856 294.343 85 294.151 85C292.903 85 291.463 84.976 289.831 84.928C288.247 84.88 286.519 84.856 284.647 84.856C283.351 84.856 282.079 84.88 280.831 84.928C279.631 84.976 278.575 85 277.663 85ZM314.961 85.864C313.809 85.864 312.657 85.672 311.505 85.288C310.401 84.904 309.465 84.256 308.697 83.344C307.977 82.432 307.617 81.136 307.617 79.456V63.184C307.617 62.128 307.497 61.312 307.257 60.736C307.065 60.16 306.705 59.776 306.177 59.584C305.649 59.344 304.905 59.224 303.945 59.224C303.753 59.224 303.657 59.032 303.657 58.648C303.657 58.264 303.753 58.072 303.945 58.072C306.201 57.976 308.025 57.448 309.417 56.488C310.857 55.48 311.865 54.064 312.441 52.24C312.489 52.048 312.681 51.952 313.017 51.952C313.353 51.952 313.521 52.048 313.521 52.24V77.08C313.521 79.048 314.001 80.464 314.961 81.328C315.969 82.192 317.265 82.624 318.849 82.624C320.001 82.624 321.057 82.408 322.017 81.976C323.025 81.496 323.865 80.992 324.537 80.464C324.681 80.368 324.849 80.44 325.041 80.68C325.233 80.872 325.233 81.04 325.041 81.184C323.265 82.816 321.585 84.016 320.001 84.784C318.465 85.504 316.785 85.864 314.961 85.864ZM322.809 60.808C320.889 60.376 319.017 60.088 317.193 59.944C315.417 59.752 313.497 59.656 311.433 59.656V57.928C313.401 57.928 315.297 57.856 317.121 57.712C318.993 57.568 320.985 57.4 323.097 57.208C323.193 57.208 323.289 57.376 323.385 57.712C323.529 58.048 323.601 58.456 323.601 58.936C323.601 59.368 323.505 59.8 323.313 60.232C323.169 60.664 323.001 60.856 322.809 60.808ZM354.581 47.704C354.581 49.576 355.061 51.208 356.021 52.6C356.981 53.944 358.205 55.168 359.693 56.272C361.229 57.376 362.837 58.456 364.517 59.512C366.341 60.616 368.069 61.792 369.701 63.04C371.381 64.288 372.749 65.728 373.805 67.36C374.909 68.944 375.461 70.888 375.461 73.192C375.461 75.688 374.813 77.896 373.517 79.816C372.221 81.688 370.421 83.176 368.117 84.28C365.861 85.336 363.197 85.864 360.125 85.864C358.829 85.864 357.461 85.744 356.021 85.504C354.629 85.264 353.309 84.928 352.061 84.496C350.861 84.064 349.877 83.608 349.109 83.128C348.917 82.984 348.749 82.816 348.605 82.624C348.509 82.432 348.437 82.144 348.389 81.76L347.957 70.888C347.909 70.648 348.005 70.528 348.245 70.528C348.533 70.48 348.701 70.552 348.749 70.744C349.325 72.184 349.997 73.72 350.765 75.352C351.581 76.936 352.517 78.4 353.573 79.744C354.629 81.088 355.829 82.192 357.173 83.056C358.565 83.872 360.149 84.28 361.925 84.28C363.173 84.28 364.349 84.064 365.453 83.632C366.557 83.2 367.469 82.456 368.189 81.4C368.909 80.296 369.269 78.808 369.269 76.936C369.269 74.68 368.741 72.76 367.685 71.176C366.677 69.544 365.381 68.128 363.797 66.928C362.213 65.728 360.557 64.6 358.829 63.544C357.149 62.44 355.541 61.312 354.005 60.16C352.469 59.008 351.197 57.688 350.189 56.2C349.229 54.664 348.749 52.816 348.749 50.656C348.749 48.016 349.469 45.856 350.909 44.176C352.349 42.496 354.173 41.248 356.381 40.432C358.637 39.616 360.941 39.208 363.293 39.208C364.877 39.208 366.485 39.352 368.117 39.64C369.749 39.928 371.141 40.336 372.293 40.864C372.725 41.008 373.013 41.2 373.157 41.44C373.301 41.68 373.373 41.944 373.373 42.232L373.517 51.952C373.517 52.144 373.397 52.264 373.157 52.312C372.965 52.36 372.821 52.312 372.725 52.168C372.485 51.448 372.125 50.464 371.645 49.216C371.165 47.92 370.493 46.624 369.629 45.328C368.765 44.032 367.685 42.928 366.389 42.016C365.093 41.104 363.509 40.648 361.637 40.648C360.197 40.648 358.949 40.936 357.893 41.512C356.837 42.088 356.021 42.904 355.445 43.96C354.869 44.968 354.581 46.216 354.581 47.704ZM381.282 104.8C381.138 104.8 381.066 104.656 381.066 104.368C381.066 104.08 381.138 103.936 381.282 103.936C383.058 103.936 384.186 103.624 384.666 103C385.194 102.376 385.458 101.032 385.458 98.968V65.488C385.458 63.904 385.29 62.752 384.954 62.032C384.618 61.312 383.994 60.952 383.082 60.952C382.65 60.952 382.122 61.048 381.498 61.24C380.922 61.384 380.298 61.624 379.626 61.96C379.434 62.056 379.266 61.984 379.122 61.744C378.978 61.456 378.954 61.264 379.05 61.168L388.554 56.632C388.65 56.584 388.77 56.56 388.914 56.56C389.49 56.56 390.018 57.136 390.498 58.288C391.026 59.392 391.29 61 391.29 63.112V98.968C391.29 100.312 391.434 101.344 391.722 102.064C392.058 102.784 392.706 103.264 393.666 103.504C394.626 103.792 396.066 103.936 397.986 103.936C398.082 103.936 398.13 104.08 398.13 104.368C398.13 104.656 398.082 104.8 397.986 104.8C396.642 104.8 395.154 104.776 393.522 104.728C391.89 104.68 390.162 104.656 388.338 104.656C387.042 104.656 385.77 104.68 384.522 104.728C383.274 104.776 382.194 104.8 381.282 104.8ZM397.986 85.936C396.114 85.936 394.506 85.768 393.162 85.432C391.818 85.096 390.258 84.52 388.482 83.704L390.426 79.312C391.578 80.752 392.826 81.928 394.17 82.84C395.562 83.752 397.362 84.208 399.57 84.208C401.922 84.208 403.794 83.2 405.186 81.184C406.626 79.12 407.346 75.976 407.346 71.752C407.346 67.816 406.458 64.864 404.682 62.896C402.906 60.88 400.77 59.872 398.274 59.872C396.354 59.872 394.698 60.376 393.306 61.384C391.914 62.392 390.546 63.616 389.202 65.056L388.554 64.336C391.002 61.504 393.33 59.464 395.538 58.216C397.794 56.92 400.098 56.272 402.45 56.272C404.418 56.272 406.266 56.8 407.994 57.856C409.722 58.864 411.114 60.352 412.17 62.32C413.226 64.288 413.754 66.688 413.754 69.52C413.754 72.544 413.25 75.112 412.242 77.224C411.234 79.288 409.938 80.968 408.354 82.264C406.77 83.56 405.066 84.496 403.242 85.072C401.418 85.648 399.666 85.936 397.986 85.936ZM438.933 85.432C438.741 85.528 438.525 85.576 438.285 85.576C437.517 85.576 436.749 85.024 435.981 83.92C435.213 82.816 434.829 81.208 434.829 79.096V66.424C434.829 63.4 434.517 61.216 433.893 59.872C433.317 58.528 432.381 57.856 431.085 57.856C429.885 57.856 428.949 58.216 428.277 58.936C427.653 59.608 427.197 60.4 426.909 61.312C426.621 62.176 426.453 62.92 426.405 63.544C426.261 64.744 425.877 65.656 425.253 66.28C424.677 66.904 423.837 67.216 422.733 67.216C421.629 67.216 420.837 66.976 420.357 66.496C419.877 65.968 419.637 65.368 419.637 64.696C419.637 63.64 420.117 62.632 421.077 61.672C422.085 60.664 423.333 59.776 424.821 59.008C426.357 58.24 427.941 57.64 429.573 57.208C431.205 56.728 432.645 56.488 433.893 56.488C435.861 56.488 437.469 57.112 438.717 58.36C440.013 59.608 440.661 61.576 440.661 64.264V77.224C440.661 78.712 440.901 79.84 441.381 80.608C441.861 81.376 442.557 81.76 443.469 81.76C444.237 81.76 445.101 81.544 446.061 81.112C446.301 81.016 446.469 81.112 446.565 81.4C446.661 81.64 446.589 81.808 446.349 81.904L438.933 85.432ZM425.397 85.504C423.381 85.504 421.869 85.024 420.861 84.064C419.901 83.104 419.421 81.88 419.421 80.392C419.421 79.048 419.781 77.968 420.501 77.152C421.221 76.288 422.229 75.592 423.525 75.064C424.821 74.488 426.261 73.912 427.845 73.336L435.549 70.456L435.765 71.536L430.509 73.768C429.933 73.96 429.309 74.248 428.637 74.632C427.965 74.968 427.389 75.424 426.909 76C426.477 76.576 426.261 77.344 426.261 78.304C426.261 79.456 426.645 80.392 427.413 81.112C428.181 81.784 429.045 82.12 430.005 82.12C430.437 82.12 430.869 82.072 431.301 81.976C431.733 81.832 432.237 81.568 432.813 81.184L436.701 78.592L436.773 79.672L431.661 83.272C430.557 84.04 429.525 84.616 428.565 85C427.653 85.336 426.597 85.504 425.397 85.504ZM463.12 85.864C459.808 85.864 457.096 85.168 454.984 83.776C452.872 82.336 451.288 80.512 450.232 78.304C449.224 76.096 448.72 73.864 448.72 71.608C448.72 69.208 449.2 67.072 450.16 65.2C451.168 63.328 452.488 61.768 454.12 60.52C455.752 59.224 457.528 58.24 459.448 57.568C461.416 56.896 463.36 56.56 465.28 56.56C466.672 56.56 468.04 56.752 469.384 57.136C470.728 57.52 471.832 58.096 472.696 58.864C473.608 59.632 474.064 60.544 474.064 61.6C474.064 62.368 473.776 63.064 473.2 63.688C472.624 64.264 471.76 64.552 470.608 64.552C469.552 64.552 468.712 64.288 468.088 63.76C467.512 63.184 467.032 62.392 466.648 61.384C466.264 60.328 465.808 59.512 465.28 58.936C464.752 58.36 463.864 58.072 462.616 58.072C460.312 58.072 458.512 59.128 457.216 61.24C455.92 63.304 455.272 65.992 455.272 69.304C455.272 71.752 455.632 73.984 456.352 76C457.12 78.016 458.344 79.648 460.024 80.896C461.704 82.096 463.936 82.696 466.72 82.696C468.112 82.696 469.336 82.528 470.392 82.192C471.496 81.856 472.624 81.328 473.776 80.608C473.872 80.512 473.992 80.56 474.136 80.752C474.328 80.944 474.376 81.088 474.28 81.184C472.6 82.72 470.872 83.896 469.096 84.712C467.368 85.48 465.376 85.864 463.12 85.864ZM492.644 85.864C489.62 85.864 487.052 85.216 484.94 83.92C482.828 82.624 481.22 80.92 480.116 78.808C479.06 76.648 478.532 74.368 478.532 71.968C478.532 69.088 479.228 66.496 480.62 64.192C482.012 61.888 483.908 60.04 486.308 58.648C488.708 57.256 491.42 56.56 494.444 56.56C497.276 56.56 499.484 57.232 501.068 58.576C502.652 59.92 503.444 62.008 503.444 64.84C503.444 65.464 503.396 65.968 503.3 66.352C503.204 66.736 502.988 66.928 502.652 66.928H496.748C496.892 64.144 496.556 61.96 495.74 60.376C494.972 58.792 493.676 58 491.852 58C489.692 58 487.988 59.008 486.74 61.024C485.54 62.992 484.94 65.632 484.94 68.944C484.94 71.728 485.372 74.152 486.236 76.216C487.1 78.232 488.372 79.816 490.052 80.968C491.732 82.12 493.796 82.696 496.244 82.696C497.732 82.696 498.98 82.504 499.988 82.12C500.996 81.688 502.076 81.16 503.228 80.536C503.324 80.44 503.444 80.488 503.588 80.68C503.78 80.872 503.828 81.04 503.732 81.184C502.004 82.864 500.228 84.064 498.404 84.784C496.628 85.504 494.708 85.864 492.644 85.864ZM482.852 67L482.78 65.776L498.764 65.488V66.928L482.852 67Z" fill="#393939"/>
</svg>
